# xmcd
#
# Track frame offsets:
#	150
#	20264
#	42610
#	66008
#	88110
#	109634
#	141294
#	162066
#	182170
#	204711
#	225044
#	243522
#	273113
#	296191
#
# Disc length: 4267 seconds
#
# Revision: 0
# Processed by: cddbd v1.4PL0 Copyright (c) Steve Scherf et al.
# Submitted via: audiograbber 1.81.01
#
DISCID=c110a90e
DTITLE=Oliver Sain - Soul Serenade
DYEAR=2001
DGENRE=Blues
TTITLE0=Feel Like Dancing
TTITLE1=Jookin'
TTITLE2=Nite Dancer
TTITLE3=On The Hill
TTITLE4=Stop Breaking Down
TTITLE5=Soul Serenade
TTITLE6=P J's Groove
TTITLE7=Let's Stay Together
TTITLE8=Where I'm Bound
TTITLE9=High Heel Sneakers/Slip In Mules
TTITLE10=Saving All My Love For You
TTITLE11=Ruby Red
TTITLE12=You Make Me Feel Brand New
TTITLE13=Cà Purange
EXTD=Released 2001, Vanessa Records
EXTT0=
EXTT1=
EXTT2=
EXTT3=
EXTT4=
EXTT5=
EXTT6=
EXTT7=
EXTT8=
EXTT9=
EXTT10=
EXTT11=
EXTT12=
EXTT13=
PLAYORDER=
